# xmcd
#
# Track frame offsets:
#	150
#	11794
#	23728
#	35714
#	47501
#	65146
#	78144
#	86609
#	100039
#	115905
#	128958
#	138774
#	149062
#	162802
#	171752
#	184631
#
# Disc length: 2654 seconds
#
# Revision: 1
# Processed by: cddbd v1.5.2PL0 Copyright (c) Steve Scherf et al.
# Submitted via: audiograbber 1.83.01
#
DISCID=d30a5c10
DTITLE=Ronny - Stimme der Pr‰rie
DYEAR=1900
DGENRE=Country
TTITLE0=Oh My Darling Caroline
TTITLE1=Kein Gold im Blue River
TTITLE2=Laﬂ die Sonne wieder scheinen
TTITLE3=Anja, Anja
TTITLE4=Down By The Banks Of The Ohio
TTITLE5=Good Morning My Sweet Adalita
TTITLE6=O Susanna
TTITLE7=Darling, Good Night
TTITLE8=Es h‰ngt ein Pferdehalfter an der Wand
TTITLE9=Tom Dooley
TTITLE10=Kenn' ein Land
TTITLE11=Jesse James
TTITLE12=Oh Muchachos
TTITLE13=Geisterreiter
TTITLE14=Kleine Annabell
TTITLE15=Adios My Darling
EXTD=
EXTT0=
EXTT1=
EXTT2=
EXTT3=
EXTT4=
EXTT5=
EXTT6=
EXTT7=
EXTT8=
EXTT9=
EXTT10=
EXTT11=
EXTT12=
EXTT13=
EXTT14=
EXTT15=
PLAYORDER=
